<svg xmlns="http://www.w3.org/2000/svg" xmlns:xlink="http://www.w3.org/1999/xlink" width="256" height="155" viewBox="0 0 256 155">
  <defs>
    <style>
      .cls-1 {
        fill: #00304c;
        fill-rule: evenodd;
        filter: url(#filter);
      }
    </style>
    <filter id="filter" x="16" y="24.031" width="225" height="115.969" filterUnits="userSpaceOnUse">
      <feFlood result="flood" flood-color="#0b5a6e"/>
      <feComposite result="composite" operator="in" in2="SourceGraphic"/>
      <feBlend result="blend" in2="SourceGraphic"/>
    </filter>
  </defs>
  <path id="adhd2_2" data-name="adhd2 2" class="cls-1" d="M16,26.972s29.415-5.094,46.458-.907,28.351,9.91,40.991,21.772S121.7,68.963,127.134,74.145c0.748,0.713-8.2,14.515-8.2,14.515S105,67.009,95.251,58.723C85.15,50.138,73.1,38.181,48.794,38.765c-0.089,0,10.931,15.422,10.931,15.422C59.741,54.239,67.673,65.5,65.19,88.66c-1.04,9.7-2.8,19.25.911,24.493,1.324,1.872,5.816,15.2,25.506,11.794,7.773-1.343,14.409-8.285,17.308-12.7s16.76-27.181,19.13-31.751c1.8-3.479,15.013-20.672,17.307-23.586s16.978-16.524,24.6-20.865c4.756-2.71,7.172-8.676,35.527-11.793,8.587-.944,31.33,1.05,35.526,3.629,0.169,0.1-10.02,8.165-10.02,8.165s-15.526,13.211-20.952,24.494-5.319,15.2-3.643,26.308,1.468,18.362.911,21.772a49.185,49.185,0,0,1-4.555,12.7c-3.024,5.2-11.15,13.189-19.13,16.329s-19.009,2.223-26.417,0-17.519-13.015-20.04-16.329-6.377-9.979-6.377-9.979l9.11-13.608a19.621,19.621,0,0,0,2.732,5.443c1.676,2.068,7.365,12.259,11.843,16.33s10.814,5.7,17.307,5.443,14.6-2.6,17.308-8.165,6.415-3.814,2.733-25.4S196.247,57,197.275,55.094c1.4-2.592,4.322-9.778,10.021-15.422,1.058-1.048-10.546.351-19.13,2.721-7.878,2.175-27.153,15.132-35.526,27.215-8.357,12.059-17.893,25.726-20.041,30.844s-15.237,25.781-21.862,30.844a44.229,44.229,0,0,1-16.4,8.164c-7.272,2.009-23.991-2.13-26.417-4.536-1.82-1.8-16.138-8.905-18.219-29.936-0.241-2.435,1.494-18.475,2.224-24.362,1.042-8.4-2.461-18.262-8.6-26.44C37.767,46.78,24.848,34.062,16,26.972Zm94.737,4.536s-0.728-5.73,4.554-2.721,12.367,21.455,13.664,23.586c0.31,0.509,7.2-19.634,15.486-23.586,3.145-1.5,3.166,1.79,2.733,2.721-0.507,1.091-14,13.9-15.486,32.658-0.013.161-5.418,0.285-5.465,0C125.162,57.841,120.353,39.7,110.737,31.508Z"/>
</svg>
